<svg width="10" height="10" viewBox="0 0 10 10" fill="none" xmlns="http://www.w3.org/2000/svg">
<rect width="10" height="10" rx="5" fill="#070707" fill-opacity="0.15"/>
<path fill-rule="evenodd" clip-rule="evenodd" d="M6.50006 4C6.50006 4.82843 5.82849 5.5 5.00006 5.5C4.17163 5.5 3.50006 4.82843 3.50006 4C3.50006 3.17157 4.17163 2.5 5.00006 2.5C5.82849 2.5 6.50006 3.17157 6.50006 4ZM6.00006 4C6.00006 4.55228 5.55235 5 5.00006 5C4.44778 5 4.00006 4.55228 4.00006 4C4.00006 3.44772 4.44778 3 5.00006 3C5.55235 3 6.00006 3.44772 6.00006 4Z" fill="#2C9D8B"/>
<path d="M5.00006 6.25C3.38147 6.25 2.00238 7.2071 1.47705 8.54801C1.60502 8.67509 1.73984 8.79529 1.88088 8.90801C2.27207 7.67692 3.49924 6.75 5.00006 6.75C6.50088 6.75 7.72806 7.67692 8.11924 8.90802C8.26029 8.79529 8.3951 8.67509 8.52307 8.54801C7.99775 7.2071 6.61866 6.25 5.00006 6.25Z" fill="#2C9D8B"/>
</svg>
